<svg width="13" height="16" viewBox="0 0 13 16" fill="none" xmlns="http://www.w3.org/2000/svg">
<path d="M6.64003 15.2C7.11742 15.2 7.57525 15.0104 7.91282 14.6728C8.25038 14.3352 8.44003 13.8774 8.44003 13.4H4.84003C4.84003 13.8774 5.02967 14.3352 5.36723 14.6728C5.7048 15.0104 6.16264 15.2 6.64003 15.2ZM6.64003 2.5265L5.92303 2.67125C5.10933 2.83691 4.37789 3.27866 3.85251 3.92171C3.32713 4.56477 3.04011 5.36961 3.04003 6.2C3.04003 6.7655 2.92003 8.17775 2.62753 9.5675C2.48278 10.2582 2.28853 10.9775 2.03053 11.6H11.2503C10.9915 10.9775 10.798 10.259 10.6533 9.5675C10.3608 8.17775 10.2408 6.7655 10.2408 6.2C10.2405 5.36964 9.95328 4.56488 9.42777 3.92197C8.90226 3.27906 8.17073 2.83748 7.35703 2.672L6.64003 2.52575V2.5265ZM12.238 11.6C12.439 12.0027 12.6708 12.3215 12.94 12.5H0.340027C0.609277 12.3215 0.841777 12.0027 1.04203 11.6C1.85203 9.98 2.14003 6.992 2.14003 6.2C2.14031 5.16205 2.49927 4.1561 3.15613 3.35244C3.813 2.54879 4.7274 1.99683 5.74453 1.79C5.73197 1.66486 5.74577 1.53847 5.78506 1.41899C5.82434 1.29952 5.88823 1.1896 5.97261 1.09633C6.05698 1.00306 6.15997 0.928512 6.27493 0.877491C6.38988 0.82647 6.51426 0.80011 6.64003 0.80011C6.7658 0.80011 6.89017 0.82647 7.00513 0.877491C7.12008 0.928512 7.22307 1.00306 7.30745 1.09633C7.39182 1.1896 7.45571 1.29952 7.495 1.41899C7.53428 1.53847 7.54809 1.66486 7.53553 1.79C8.55259 1.99696 9.46691 2.54896 10.1238 3.35258C10.7806 4.15621 11.1396 5.16209 11.14 6.2C11.14 6.992 11.428 9.98 12.238 11.6Z" fill="black"/>
</svg>
