<svg width="22" height="18" viewBox="0 0 22 18" fill="none" xmlns="http://www.w3.org/2000/svg">
<path d="M1.89998 2.59858C3.05048 2.11758 4.70039 1.59866 6.30481 1.43725C8.03381 1.26391 9.50064 1.51958 10.35 2.4155V15.0851C9.13448 14.3961 7.59398 14.3007 6.17373 14.4437C4.63973 14.6008 3.09164 15.045 1.89998 15.5V2.5975V2.59858ZM11.65 2.41441C12.5004 1.51958 13.9672 1.26391 15.6962 1.43725C17.2996 1.59975 18.9495 2.11758 20.1 2.59858V15.4989C18.9072 15.0439 17.3613 14.5997 15.8273 14.4459C14.4049 14.3007 12.8655 14.395 11.65 15.0851V2.4155V2.41441ZM11 1.24116C9.71948 0.140498 7.86373 -0.0241688 6.17373 0.144831C4.20531 0.344165 2.21956 1.01908 0.981309 1.58133C0.867672 1.63291 0.771286 1.71612 0.703665 1.82101C0.636044 1.9259 0.600048 2.04803 0.599976 2.17283V16.4728C0.599956 16.5817 0.627268 16.6888 0.679407 16.7843C0.731545 16.8799 0.806841 16.9608 0.898385 17.0196C0.98993 17.0785 1.09479 17.1135 1.20335 17.1213C1.31192 17.1291 1.4207 17.1095 1.51973 17.0643C2.66589 16.5443 4.51298 15.9192 6.30373 15.7383C8.13456 15.5542 9.67073 15.8521 10.493 16.8791C10.5539 16.955 10.6311 17.0163 10.7188 17.0584C10.8066 17.1005 10.9026 17.1223 11 17.1223C11.0973 17.1223 11.1934 17.1005 11.2811 17.0584C11.3689 17.0163 11.4461 16.955 11.507 16.8791C12.3303 15.8521 13.8654 15.5542 15.6962 15.7383C17.487 15.9192 19.3362 16.5443 20.4813 17.0643C20.5803 17.1093 20.689 17.1287 20.7974 17.1207C20.9058 17.1128 21.0105 17.0778 21.1019 17.019C21.1933 16.9601 21.2684 16.8793 21.3205 16.7839C21.3726 16.6885 21.3999 16.5815 21.4 16.4728V2.17283C21.4 2.04815 21.3642 1.9261 21.2967 1.82122C21.2293 1.71635 21.1332 1.63307 21.0197 1.58133C19.7815 1.018 17.7957 0.344165 15.8273 0.144831C14.1373 -0.0252521 12.2805 0.140498 11 1.24116Z" fill="#2B2B2B"/>
</svg>
