<svg width="20" height="20" viewBox="0 0 20 20" fill="none" xmlns="http://www.w3.org/2000/svg">
<path d="M0.119995 1.03001C0.119995 0.857614 0.188477 0.692284 0.310375 0.570386C0.432274 0.448487 0.597604 0.380005 0.769995 0.380005H2.72C2.86501 0.380057 3.00585 0.428604 3.1201 0.517923C3.23435 0.607241 3.31545 0.732201 3.35049 0.872922L3.87699 2.98001H18.97C19.0655 2.97998 19.1598 3.00098 19.2462 3.04152C19.3326 3.08207 19.4091 3.14115 19.4701 3.21458C19.5311 3.28801 19.5752 3.37397 19.5992 3.46637C19.6233 3.55876 19.6267 3.65532 19.6092 3.74917L17.6592 14.1492C17.6313 14.2983 17.5522 14.4331 17.4355 14.53C17.3187 14.627 17.1717 14.68 17.02 14.68H5.31999C5.16825 14.68 5.02126 14.627 4.90453 14.53C4.78779 14.4331 4.70865 14.2983 4.68083 14.1492L2.73408 3.77084L2.21408 1.68109H0.769995C0.597604 1.68109 0.432274 1.61261 0.310375 1.49071C0.188477 1.36881 0.119995 1.20348 0.119995 1.03109V1.03001ZM4.15216 4.28L5.8595 13.38H16.4805L18.1878 4.28H4.15216ZM6.61999 14.68C6.27856 14.68 5.94046 14.7473 5.62502 14.8779C5.30957 15.0086 5.02295 15.2001 4.78152 15.4415C4.54008 15.683 4.34857 15.9696 4.21791 16.285C4.08725 16.6005 4.01999 16.9386 4.01999 17.28C4.01999 17.6214 4.08725 17.9595 4.21791 18.275C4.34857 18.5904 4.54008 18.8771 4.78152 19.1185C5.02295 19.3599 5.30957 19.5514 5.62502 19.6821C5.94046 19.8128 6.27856 19.88 6.61999 19.88C7.30956 19.88 7.97088 19.6061 8.45847 19.1185C8.94607 18.6309 9.21999 17.9696 9.21999 17.28C9.21999 16.5904 8.94607 15.9291 8.45847 15.4415C7.97088 14.9539 7.30956 14.68 6.61999 14.68ZM15.72 14.68C15.3785 14.68 15.0403 14.7473 14.7248 14.878C14.4093 15.0086 14.1226 15.2002 13.8811 15.4417C13.6397 15.6832 13.4481 15.9699 13.3174 16.2854C13.1867 16.6009 13.1195 16.939 13.1195 17.2805C13.1195 17.6221 13.1867 17.9602 13.3174 18.2757C13.4481 18.5912 13.6397 18.8779 13.8811 19.1194C14.1226 19.3609 14.4093 19.5524 14.7248 19.6831C15.0403 19.8138 15.3785 19.8811 15.72 19.8811C16.4096 19.8811 17.0709 19.6072 17.5585 19.1196C18.0461 18.632 18.32 17.9707 18.32 17.2811C18.32 16.5915 18.0461 15.9302 17.5585 15.4426C17.0709 14.955 16.4096 14.6811 15.72 14.6811V14.68ZM6.61999 15.98C6.79071 15.98 6.95976 16.0136 7.11748 16.079C7.27521 16.1443 7.41852 16.2401 7.53923 16.3608C7.65995 16.4815 7.75571 16.6248 7.82104 16.7825C7.88637 16.9402 7.91999 17.1093 7.91999 17.28C7.91999 17.4507 7.88637 17.6198 7.82104 17.7775C7.75571 17.9352 7.65995 18.0785 7.53923 18.1992C7.41852 18.32 7.27521 18.4157 7.11748 18.4811C6.95976 18.5464 6.79071 18.58 6.61999 18.58C6.27521 18.58 5.94455 18.443 5.70076 18.1992C5.45696 17.9554 5.31999 17.6248 5.31999 17.28C5.31999 16.9352 5.45696 16.6046 5.70076 16.3608C5.94455 16.117 6.27521 15.98 6.61999 15.98ZM15.72 15.98C15.8907 15.98 16.0598 16.0136 16.2175 16.079C16.3752 16.1443 16.5185 16.2401 16.6392 16.3608C16.7599 16.4815 16.8557 16.6248 16.921 16.7825C16.9864 16.9402 17.02 17.1093 17.02 17.28C17.02 17.4507 16.9864 17.6198 16.921 17.7775C16.8557 17.9352 16.7599 18.0785 16.6392 18.1992C16.5185 18.32 16.3752 18.4157 16.2175 18.4811C16.0598 18.5464 15.8907 18.58 15.72 18.58C15.3752 18.58 15.0446 18.443 14.8008 18.1992C14.557 17.9554 14.42 17.6248 14.42 17.28C14.42 16.9352 14.557 16.6046 14.8008 16.3608C15.0446 16.117 15.3752 15.98 15.72 15.98Z" fill="#2B2B2B"/>
</svg>
