<svg width="16" height="14" viewBox="0 0 16 14" fill="none" xmlns="http://www.w3.org/2000/svg">
<path d="M7.99999 2.6335L7.35499 1.96975C5.83999 0.412754 3.06274 0.949754 2.05999 2.90725C1.58974 3.82825 1.48324 5.15725 2.34274 6.8545C3.17074 8.488 4.89274 10.444 7.99999 12.5755C11.1072 10.444 12.8285 8.488 13.658 6.8545C14.5167 5.1565 14.4117 3.82825 13.94 2.908C12.9372 0.950504 10.16 0.412003 8.64499 1.969L7.99999 2.6335ZM7.99999 13.66C-5.80001 4.5415 3.75124 -2.576 7.84249 1.189C7.89574 1.2385 7.94899 1.2895 7.99999 1.34275C8.05099 1.2895 8.10349 1.23775 8.15824 1.18975C12.2487 -2.5775 21.8 4.54 8.00074 13.66H7.99999Z" fill="black"/>
</svg>
