<svg width="17" height="18" viewBox="0 0 17 18" fill="none" xmlns="http://www.w3.org/2000/svg">
<path fill-rule="evenodd" clip-rule="evenodd" d="M8.47999 2.36133L16.28 10.1613V15.63C16.28 16.1472 16.0745 16.6432 15.7089 17.0089C15.3432 17.3745 14.8472 17.58 14.33 17.58H2.62999C2.11282 17.58 1.61683 17.3745 1.25113 17.0089C0.885439 16.6432 0.679993 16.1472 0.679993 15.63V10.1613L8.47999 2.36133ZM14.98 1.32999V5.87999L12.38 3.27999V1.32999C12.38 1.1576 12.4485 0.992272 12.5704 0.870373C12.6923 0.748475 12.8576 0.679993 13.03 0.679993H14.33C14.5024 0.679993 14.6677 0.748475 14.7896 0.870373C14.9115 0.992272 14.98 1.1576 14.98 1.32999Z" fill="black"/>
</svg>
