<svg width="11" height="16" viewBox="0 0 11 16" fill="none" xmlns="http://www.w3.org/2000/svg">
<path d="M5.19995 1.69999C5.73038 1.69999 6.23909 1.88963 6.61416 2.2272C6.98924 2.56476 7.19995 3.0226 7.19995 3.49999V7.09999H3.19995V3.49999C3.19995 3.0226 3.41067 2.56476 3.78574 2.2272C4.16081 1.88963 4.66952 1.69999 5.19995 1.69999ZM8.19995 7.09999V3.49999C8.19995 2.7839 7.88388 2.09715 7.32127 1.5908C6.75866 1.08445 5.9956 0.799988 5.19995 0.799988C4.4043 0.799988 3.64124 1.08445 3.07863 1.5908C2.51602 2.09715 2.19995 2.7839 2.19995 3.49999V7.09999C1.66952 7.09999 1.16081 7.28963 0.785738 7.62719C0.410665 7.96476 0.199951 8.4226 0.199951 8.89999V13.4C0.199951 13.8774 0.410665 14.3352 0.785738 14.6728C1.16081 15.0103 1.66952 15.2 2.19995 15.2H8.19995C8.73038 15.2 9.23909 15.0103 9.61416 14.6728C9.98924 14.3352 10.2 13.8774 10.2 13.4V8.89999C10.2 8.4226 9.98924 7.96476 9.61416 7.62719C9.23909 7.28963 8.73038 7.09999 8.19995 7.09999Z" fill="black"/>
</svg>
