<svg width="7" height="8" viewBox="0 0 7 8" fill="none" xmlns="http://www.w3.org/2000/svg">
<path d="M0.839003 0.317975C0.941277 0.265404 1.05607 0.242069 1.17076 0.250538C1.28544 0.259007 1.39556 0.298952 1.489 0.365975L5.864 3.49098C5.94473 3.54894 6.0105 3.62529 6.05587 3.71371C6.10123 3.80214 6.1249 3.90009 6.1249 3.99948C6.1249 4.09886 6.10123 4.19681 6.05587 4.28524C6.0105 4.37366 5.94473 4.45001 5.864 4.50798L1.489 7.63298C1.39569 7.70028 1.28558 7.74046 1.17085 7.7491C1.05612 7.75774 0.941236 7.73449 0.838894 7.68192C0.736551 7.62935 0.650735 7.54951 0.590929 7.45123C0.531123 7.35294 0.499655 7.24003 0.500003 7.12498V0.874975C0.499768 0.759925 0.531295 0.647042 0.591109 0.548763C0.650924 0.450484 0.736705 0.370622 0.839003 0.317975Z" fill="#403F3F"/>
</svg>
